<?xml version="1.0" standalone="no"?>
<!-- Generator: Adobe Fireworks 10, Export SVG Extension by Aaron Beall (http://fireworks.abeall.com) . Version: 0.6.1  -->
<!DOCTYPE svg PUBLIC "-//W3C//DTD SVG 1.1//EN" "http://www.w3.org/Graphics/SVG/1.1/DTD/svg11.dtd">
<svg id="hardDrive-Page%201" viewBox="-7 -8 14 16" style="background-color:none" version="1.1"
	xmlns="http://www.w3.org/2000/svg" xmlns:xlink="http://www.w3.org/1999/xlink" xml:space="preserve"
	x="-7px" y="-8px" width="14px" height="16px"
>
	<g id="Layer%201">
		<path d="M -4.95 -2 C -4.95 -4.7338 -2.7338 -6.95 0 -6.95 C 2.7338 -6.95 4.95 -4.7338 4.95 -2 C 4.95 0.7338 2.7338 2.95 0 2.95 L -0.04 2.95 C -0.2519 4.116 -1.2728 5 -2.5 5 C -3.8807 5 -5 3.8807 -5 2.5 C -5 1.8237 -4.6106 1.21 -4.11 0.76 C -4.6407 -0.0286 -4.95 -0.9781 -4.95 -2 ZM -6 -6.5 C -6 -6.7762 -5.7762 -7 -5.5 -7 C -5.2238 -7 -5 -6.7762 -5 -6.5 C -5 -6.2238 -5.2238 -6 -5.5 -6 C -5.7762 -6 -6 -6.2238 -6 -6.5 ZM -6 6.5 C -6 6.2238 -5.7762 6 -5.5 6 C -5.2238 6 -5 6.2238 -5 6.5 C -5 6.7762 -5.2238 7 -5.5 7 C -5.7762 7 -6 6.7762 -6 6.5 ZM 5 -6.5 C 5 -6.7762 5.2238 -7 5.5 -7 C 5.7762 -7 6 -6.7762 6 -6.5 C 6 -6.2238 5.7762 -6 5.5 -6 C 5.2238 -6 5 -6.2238 5 -6.5 ZM 5 6.5 C 5 6.2238 5.2238 6 5.5 6 C 5.7762 6 6 6.2238 6 6.5 C 6 6.7762 5.7762 7 5.5 7 C 5.2238 7 5 6.7762 5 6.5 ZM -7 -8 L -7 8 L 7 8 L 7 -8 L -7 -8 ZM -4 2.5 C -4 3.3284 -3.3284 4 -2.5 4 C -1.5781 4 -1.0156 1.9844 0 0 C -2.0156 1 -4 1.5156 -4 2.5 ZM -1 -2 C -1 -1.4477 -0.5523 -1 0 -1 C 0.5523 -1 1 -1.4477 1 -2 C 1 -2.5523 0.5523 -3 0 -3 C -0.5523 -3 -1 -2.5523 -1 -2 Z" fill="#fff"/>
	</g>
</svg>