<?xml version="1.0" standalone="no"?>
<!-- Generator: Adobe Fireworks 10, Export SVG Extension by Aaron Beall (http://fireworks.abeall.com) . Version: 0.6.1  -->
<!DOCTYPE svg PUBLIC "-//W3C//DTD SVG 1.1//EN" "http://www.w3.org/Graphics/SVG/1.1/DTD/svg11.dtd">
<svg id="hub-Page%201" viewBox="0 0 16 16" style="background-color:none" version="1.1"
	xmlns="http://www.w3.org/2000/svg" xmlns:xlink="http://www.w3.org/1999/xlink" xml:space="preserve"
	x="0px" y="0px" width="16px" height="16px"
>
	<g id="compoundPath">
		<path d="M 7 2.915 L 7 5.075 C 6.3878 5.2009 5.8569 5.554 5.5 6.04 L 2.975 4.76 C 2.9899 4.6751 3 4.5894 3 4.5 C 3 3.6716 2.3284 3 1.5 3 C 0.6716 3 0 3.6716 0 4.5 C 0 5.3284 0.6716 6 1.5 6 C 1.9527 6 2.36 5.797 2.635 5.48 L 5.15 6.715 C 5.0673 6.962 5.025 7.2252 5.025 7.5 C 5.025 7.7782 5.0704 8.0454 5.155 8.295 L 2.665 9.555 C 2.39 9.2157 1.9708 9 1.5 9 C 0.6716 9 0 9.6716 0 10.5 C 0 11.3284 0.6716 12 1.5 12 C 2.3284 12 3 11.3284 3 10.5 C 3 10.3751 2.9839 10.2512 2.955 10.135 L 5.465 8.91 C 5.8212 9.4228 6.3667 9.7951 7 9.925 L 7 12.085 C 6.4174 12.2909 6 12.8469 6 13.5 C 6 14.3284 6.6716 15 7.5 15 C 8.3284 15 9 14.3284 9 13.5 C 9 12.8469 8.5826 12.2909 8 12.085 L 8 9.925 C 8.6491 9.7917 9.2048 9.4035 9.56 8.87 L 12.055 10.09 C 12.0181 10.2202 12 10.358 12 10.5 C 12 11.3284 12.6716 12 13.5 12 C 14.3284 12 15 11.3284 15 10.5 C 15 9.6716 14.3284 9 13.5 9 C 13.0479 9 12.6405 9.1987 12.365 9.515 L 9.86 8.245 C 9.935 8.0092 9.975 7.7604 9.975 7.5 C 9.975 7.242 9.9377 6.994 9.865 6.76 L 12.4 5.52 C 12.6732 5.816 13.0654 6 13.5 6 C 14.3284 6 15 5.3284 15 4.5 C 15 3.6716 14.3284 3 13.5 3 C 12.6716 3 12 3.6716 12 4.5 C 12 4.607 12.0137 4.7093 12.035 4.81 L 9.53 6.08 C 9.1737 5.5721 8.63 5.2039 8 5.075 L 8 2.915 C 8.5826 2.7091 9 2.1531 9 1.5 C 9 0.6716 8.3284 0 7.5 0 C 6.6716 0 6 0.6716 6 1.5 C 6 2.1531 6.4174 2.7091 7 2.915 Z" fill="#05a7df"/>
	</g>
</svg>