<?xml version="1.0" standalone="no"?>
<!-- Generator: Adobe Fireworks 10, Export SVG Extension by Aaron Beall (http://fireworks.abeall.com) . Version: 0.6.1  -->
<!DOCTYPE svg PUBLIC "-//W3C//DTD SVG 1.1//EN" "http://www.w3.org/Graphics/SVG/1.1/DTD/svg11.dtd">
<svg id="project-Page%201" viewBox="0 0 16 16" style="background-color:none" version="1.1"
	xmlns="http://www.w3.org/2000/svg" xmlns:xlink="http://www.w3.org/1999/xlink" xml:space="preserve"
	x="0px" y="0px" width="16px" height="16px"
>
	<g id="Layer%201">
		<path d="M 4.6667 12.0833 C 4.5467 11.6243 4.2881 11.2193 3.9378 10.9152 L 6.9911 5.5587 C 7.2162 5.6284 7.4553 5.6667 7.7037 5.6667 C 8.0024 5.6667 8.288 5.6128 8.5511 5.5135 L 11.9896 10.9823 C 11.6765 11.2777 11.4449 11.6569 11.3333 12.0833 L 4.6667 12.0833 ZM 0 12.6667 C 0 13.9554 1.0612 15 2.3704 15 C 3.4749 15 4.4035 14.2564 4.6667 13.25 L 11.3333 13.25 C 11.5965 14.2564 12.5251 15 13.6296 15 C 14.9388 15 16 13.9554 16 12.6667 C 16 11.378 14.9388 10.3333 13.6296 10.3333 C 13.4028 10.3333 13.184 10.3652 12.9763 10.4238 L 9.4533 4.9069 C 9.8385 4.492 10.0741 3.9397 10.0741 3.3333 C 10.0741 2.0446 9.0128 1 7.7037 1 C 6.3946 1 5.3333 2.0446 5.3333 3.3333 C 5.3333 3.9907 5.6091 4.5849 6.0533 5.009 L 2.9259 10.3975 C 2.7479 10.3555 2.5615 10.3333 2.3704 10.3333 C 1.0612 10.3333 0 11.378 0 12.6667 Z" fill="#05a7df"/>
	</g>
</svg>